<svg xmlns="http://www.w3.org/2000/svg" viewBox="0 0 1027.47 587.77"><g id="Layer_2" data-name="Layer 2"><g id="Layer_1-2" data-name="Layer 1"><path d="M145.63,149q0,23.49-12.21,38.18T100.65,208.4q-20.58,6.49-45.92,5.72a223.11,223.11,0,0,1-51.64-7.88V153.05Q27.21,161.72,47,163.88t31.54-1.7Q90.29,158.31,90.29,149q0-6.49-6.5-10.67a74.21,74.21,0,0,0-16.85-7.58q-10.36-3.39-21.8-7.88a112.85,112.85,0,0,1-21.8-11.44A54.21,54.21,0,0,1,6.49,93.23Q0,81.94,0,64.93q0-21,11.13-35.56t30.15-22Q60.3,0,84.57,0a182.44,182.44,0,0,1,50.24,7.42V60.6q-21.65-9.27-39.73-11.28T66.17,51.17Q55.34,55,55.35,63.7q0,6.18,6.49,10.2a75,75,0,0,0,16.85,7.27q10.36,3.24,21.8,7.73a104.38,104.38,0,0,1,21.8,11.75,56.21,56.21,0,0,1,16.85,18.86Q145.64,131.1,145.63,149Z"/><path d="M175.32,212.42V2.16h54.11V212.42H175.32Z"/><path d="M271.16,212.42V2.16h77.31q9,31.55,17.78,63.85t17.47,63.86Q392.36,98.33,401.18,66T418.66,2.16H495q.3,51.94.62,105.13t.62,105.13H444V69.88q-9.27,35.25-18.86,71.27t-18.86,71.27h-47q-9.29-34.62-18.55-70t-18.55-70V212.42h-51Z"/><path d="M536.46,212.42V2.16h76.68q23.8,0,41.43,9.13a67.86,67.86,0,0,1,27.52,25.5q9.9,16.4,9.9,38.35,0,21.64-9.74,38a66.89,66.89,0,0,1-26.6,25.35q-16.85,9-38.18,9h-26.9v64.93H536.46ZM613.14,50.71H590.57v49.78h25.66a19.53,19.53,0,0,0,15.62-7.11q6-7.11,6-17.63,0-10.81-6.5-17.93T613.14,50.71Z"/><path d="M719.81,212.42V2.16h54.11v161.1h65.86v49.16h-120Z"/><path d="M869.15,212.42V2.16H995.31V50.4h-72V81h65.86V127.7H923.26v36.49h72v48.23H869.15Z"/><path d="M7.42,583.47V373.21H82.25a109.45,109.45,0,0,1,42.05,7.89,100.83,100.83,0,0,1,55.5,55.34A107.48,107.48,0,0,1,187.69,478a108.6,108.6,0,0,1-7.89,41.74,102.66,102.66,0,0,1-22.11,33.55,99.66,99.66,0,0,1-33.39,22.26,109.45,109.45,0,0,1-42,7.89H7.42ZM82.25,422.06H61.53V534.61H82.25q15.45,0,26.9-7.42a48.81,48.81,0,0,0,17.62-20.25A65.77,65.77,0,0,0,133,478a64.83,64.83,0,0,0-6.19-28.76,48.08,48.08,0,0,0-17.62-19.94Q97.7,422.07,82.25,422.06Z"/><path d="M217.37,583.47V373.21H343.52v48.23h-72v30.62h65.86v46.68H271.48v36.49h72v48.24H217.37Z"/><path d="M518.84,520.08q0,23.5-12.21,38.19t-32.78,21.18q-20.57,6.49-45.92,5.72a223.06,223.06,0,0,1-51.63-7.89V524.1q24.1,8.65,43.9,10.82t31.54-1.7q11.75-3.86,11.75-13.14,0-6.5-6.49-10.67a74.64,74.64,0,0,0-16.85-7.57q-10.36-3.4-21.8-7.89a112,112,0,0,1-21.8-11.44,54,54,0,0,1-16.85-18.24Q373.21,453,373.2,436q0-21,11.13-35.56t30.15-21.95q19-7.43,43.29-7.43A182.59,182.59,0,0,1,508,378.47v53.18q-21.66-9.28-39.74-11.29t-28.91,1.86q-10.81,3.87-10.82,12.52,0,6.19,6.49,10.21a74.68,74.68,0,0,0,16.86,7.26q10.35,3.26,21.79,7.73a104.13,104.13,0,0,1,21.8,11.75,56.09,56.09,0,0,1,16.85,18.86Q518.83,502.15,518.84,520.08Z"/><path d="M548.52,583.47V373.21h54.11V583.47H548.52Z"/><path d="M814.12,572.34q-32.16,13-59.83,15t-49.94-5.25a98.38,98.38,0,0,1-62.14-57.36,116.44,116.44,0,0,1-8.35-44.53,122.45,122.45,0,0,1,7.73-44.06A97.68,97.68,0,0,1,664.31,401a105.51,105.51,0,0,1,36.33-23.19q21.35-8.36,48.55-8.2t59.68,10.05V432q-25.68-10.2-47.47-11.75t-38,4.64Q707.14,431,698,444.48T688.89,478q0,17.63,6.65,31.23a51.62,51.62,0,0,0,18.71,21.33,49.82,49.82,0,0,0,27.52,7.73q5.25,0,10.51-.46a65.4,65.4,0,0,0,10.2-1.7V503.38H727.85V457.31h86.27v115Z"/><path d="M853.39,583.47V373.21h54.42q16.38,29.39,33.24,59.37t33.24,59.36V373.21h53.18V583.47H973.05q-16.39-29.37-33.24-59.37t-33.24-59.37V583.47H853.39Z"/></g></g></svg>